<svg width="324" height="55" xmlns="http://www.w3.org/2000/svg" xmlns:xlink="http://www.w3.org/1999/xlink"><defs><path id="a" d="M0 0h270v32.714H0z"/></defs><g fill="none" fill-rule="evenodd"><g stroke="#FFF" stroke-linecap="round" stroke-linejoin="round" stroke-width="1.352"><path d="M37.205 39.237s-2.557-11.407.915-12.76c3.473-1.354 7.046 6.142 9.754 4.06 2.71-2.084 0-7.456-6.637-11.486C34.6 15.022 25.49 15.44 25.49 15.44M18.02 37.173s1.293-8.857-2.19-10.064c-3.485-1.208-5.593 5.943-7.952 3.589-2.358-2.355 1.983-6.184 4.78-8.321 2.796-2.138 7.551-3.66 14.053-3.787"/></g><g transform="translate(53.738 21.546)"><mask id="b" fill="#fff"><use xlink:href="#a"/></mask><path d="M267.185 6.295a.596.596 0 1 1 0 1.193L-.238 7.55a.596.596 0 1 1 0-1.193l267.423-.062Z" fill="#FFF" fill-rule="nonzero" mask="url(#b)"/></g><path d="M53.385 27.558c0 14.551-11.795 26.348-26.346 26.348C12.49 53.906.694 42.11.694 27.558c0-14.55 11.795-26.346 26.345-26.346 14.551 0 26.346 11.795 26.346 26.346Z" stroke="#FFF" stroke-width="1.352"/><path d="M29.959 9.83a4.08 4.08 0 0 0 4.08 4.08 4.08 4.08 0 1 0-4.08-4.08ZM22.504 14.189a3.187 3.187 0 1 1-6.373 0 3.187 3.187 0 0 1 6.373 0Z" stroke="#FFF" stroke-width="1.352"/><path d="M29.998 24.48a2.63 2.63 0 0 1-5.26 0 2.631 2.631 0 0 1 5.26 0Z" stroke="#FFF" stroke-width="1.352" stroke-linecap="round" stroke-linejoin="round"/><path d="M31.207 33.723c-.897-2.744-2.285-4.502-3.837-4.502-1.735 0-3.26 2.19-4.131 5.49-.046.18-.092.364-.136.552 0 0-.112.546-.15.788" stroke="#FFF" stroke-width="1.591" stroke-linecap="round" stroke-linejoin="round"/><path d="M39.447 45.693c.305-.137.59-.277.881-.417 1.54-.767 4.794-2.574 7.282-5.204a23.862 23.862 0 0 0 2.304-4.916c-9.99 7.85-19.273 6.645-19.273 6.645 8.073-6.424 2.496-7.285 2.496-7.285-1.583 1.946-10.398 7.76-20.872 2.486-5.988-3.014-8.297-8.226-9.183-12.146-.1.889-.162 1.788-.162 2.703 0 13.299 10.82 24.119 24.12 24.119 7.68 0 14.52-3.622 18.94-9.235a23.06 23.06 0 0 1-3.787 2.27c-1.745.829-2.746.98-2.746.98" fill="#FFF"/><g fill="#FFF" fill-rule="nonzero"><path d="M75.764 10.823h-1.56l-1.804 5.15c-.245.701-.596 1.665-.823 2.558h-.035a41.966 41.966 0 0 0-.789-2.557l-1.804-5.15h-1.454l-1.787 5.15c-.263.753-.56 1.646-.806 2.557h-.035c-.228-.91-.56-1.822-.823-2.557l-1.805-5.15H60.54l3.96 11.334h.577l2.085-5.974c.298-.841.613-1.787.964-2.996h.035c.35 1.209.665 2.137.963 2.996l2.085 5.974h.578l3.977-11.335ZM79.174 22.193c1.05 0 1.91-.438 2.382-1.174.21.526.613.893 1.051 1.086l.911-.98v-.159c-.508-.245-.893-1.033-.893-1.751v-2.47c0-1.875-1.279-2.874-3.048-2.874-.964 0-1.875.21-2.593.684l.315 1.314c.578-.386 1.402-.631 2.19-.631 1.121 0 1.542.578 1.542 1.296v.508l-1.857.175c-1.35.123-2.61.999-2.61 2.54 0 1.28.98 2.436 2.61 2.436Zm-1.086-2.418c0-.578.403-1.191 1.419-1.279l1.524-.14v.7c0 1.07-.824 1.788-1.77 1.788-.718 0-1.173-.508-1.173-1.069ZM90.327 19.74c0-2.733-3.574-2.207-3.574-3.661 0-.456.42-.789 1.07-.789.84 0 1.383.263 1.75.508l.316-1.33c-.298-.194-1.156-.509-2.05-.509-1.559 0-2.627.876-2.627 2.207 0 2.698 3.521 2.225 3.521 3.627 0 .63-.49.963-1.226.963-.946 0-1.857-.42-2.435-.893l.192 1.664c.543.35 1.297.578 2.208.578 1.892 0 2.855-1.051 2.855-2.365ZM99.729 22v-5.256c0-1.769-1.28-2.873-3.013-2.873-1.244 0-1.927.42-2.313 1.017h-.017V9.527H92.79V22h1.595v-5.098c0-.823.63-1.664 1.91-1.664 1.33 0 1.839.84 1.839 1.664V22h1.594ZM104.383 12.26c0-.333-.63-.964-.964-.964-.315 0-.963.63-.963.964 0 .315.648.963.963.963.333 0 .964-.648.964-.963Zm-.158 9.74v-7.936h-1.612V22h1.612ZM114.047 22v-5.256c0-1.769-1.279-2.873-3.013-2.873-1.384 0-2.102.526-2.453 1.227h-.017v-1.034h-1.454V22h1.594v-5.098c0-.823.63-1.664 1.91-1.664 1.33 0 1.839.84 1.839 1.664V22h1.594ZM123.571 23.419c0-1.454-.84-2.277-2.225-2.715l-2.137-.684c-.175-.052-.28-.175-.28-.332 0-.368.403-.456 1.033-.456 1.857 0 2.961-1.261 2.961-2.68 0-.508-.175-.964-.35-1.174.368-.017.77-.105.98-.245l-.297-1.314c-.35.175-.911.403-1.56.403-.507-.21-.98-.35-1.681-.35-1.804 0-3.03 1.12-3.03 2.68 0 1.033.577 1.787 1.296 2.19-.543.157-1.016.683-1.016 1.26l.893.894c-.806.176-1.734.911-1.734 2.295 0 1.647 1.436 2.856 3.609 2.856 2.12 0 3.538-1.121 3.538-2.628Zm-2.102-6.885c0 .754-.7 1.367-1.507 1.367-.875 0-1.524-.613-1.524-1.367 0-.718.649-1.366 1.524-1.366.876 0 1.507.648 1.507 1.366Zm.596 6.85c0 .613-.684 1.331-2.067 1.331-1.42 0-2.12-.77-2.12-1.541 0-.859.648-1.524 1.611-1.524l1.367.403c.788.227 1.209.735 1.209 1.331ZM130.836 14.064h-3.014V11.63l-1.576.823v1.612h-1.35v1.367h1.35v4.292c0 1.541 1.156 2.365 2.592 2.365.316 0 .666-.035.876-.14l.14-1.332c-.192.07-.437.105-.718.105-.84 0-1.314-.315-1.314-1.226V15.43h2.733l.28-1.367ZM140.412 18.04c0-2.47-1.84-4.169-4.204-4.169-2.365 0-4.222 1.7-4.222 4.17 0 2.452 1.857 4.152 4.222 4.152s4.204-1.7 4.204-4.152Zm-1.611 0c0 1.665-1.21 2.786-2.593 2.786-1.402 0-2.61-1.12-2.61-2.785 0-1.7 1.208-2.803 2.61-2.803 1.384 0 2.593 1.104 2.593 2.803ZM149.709 22v-5.256c0-1.769-1.28-2.873-3.013-2.873-1.384 0-2.103.526-2.453 1.227h-.018v-1.034h-1.454V22h1.595v-5.098c0-.823.63-1.664 1.91-1.664 1.33 0 1.839.84 1.839 1.664V22h1.594ZM163.94 18.794c0-4.1-4.958-2.733-4.958-5.29 0-.824.683-1.384 1.787-1.384.893 0 1.734.368 2.137.648l.333-1.42c-.49-.297-1.454-.63-2.523-.63-2.242 0-3.363 1.314-3.363 2.908 0 4.012 4.887 2.523 4.887 5.168 0 1.261-.806 1.822-2.067 1.822-1.121 0-2.26-.42-3.066-1.034l.193 1.77c.578.385 1.647.736 2.838.736 2.488 0 3.801-1.332 3.801-3.294ZM171.554 14.064h-3.013V11.63l-1.577.823v1.612h-1.349v1.367h1.35v4.292c0 1.541 1.156 2.365 2.592 2.365.315 0 .666-.035.876-.14l.14-1.332c-.193.07-.438.105-.718.105-.841 0-1.314-.315-1.314-1.226V15.43h2.733l.28-1.367ZM175.262 22.193c1.051 0 1.91-.438 2.383-1.174.21.526.613.893 1.05 1.086l.912-.98v-.159c-.508-.245-.894-1.033-.894-1.751v-2.47c0-1.875-1.279-2.874-3.048-2.874-.963 0-1.874.21-2.593.684l.316 1.314c.578-.386 1.401-.631 2.19-.631 1.12 0 1.541.578 1.541 1.296v.508l-1.857.175c-1.349.123-2.61.999-2.61 2.54 0 1.28.981 2.436 2.61 2.436Zm-1.086-2.418c0-.578.403-1.191 1.419-1.279l1.524-.14v.7c0 1.07-.823 1.788-1.77 1.788-.717 0-1.173-.508-1.173-1.069ZM186.608 14.064h-3.013V11.63l-1.577.823v1.612h-1.348v1.367h1.348v4.292c0 1.541 1.157 2.365 2.593 2.365.315 0 .666-.035.876-.14l.14-1.332c-.192.07-.438.105-.718.105-.84 0-1.314-.315-1.314-1.226V15.43h2.733l.28-1.367ZM192.016 22.193c1.068 0 1.786-.21 2.347-.508l.175-1.507c-.56.368-1.296.648-2.312.648-1.7 0-2.68-1.156-2.838-2.4h4.8l.893-.893a3.46 3.46 0 0 0 .053-.648c0-1.472-1.244-3.014-3.434-3.014-1.84 0-3.941 1.472-3.941 4.17 0 2.47 1.997 4.152 4.257 4.152Zm-.228-6.955c1.051 0 1.734.893 1.734 1.682 0 .07 0 .14-.017.21h-4.012c.368-1.332 1.471-1.892 2.295-1.892ZM211.975 16.412c0-3.61-2.926-5.589-6.044-5.589h-3.434V22h3.434c3.118 0 6.044-1.98 6.044-5.588Zm-1.734.017c0 2.838-2.085 4.152-4.608 4.152h-1.419v-8.304h1.42c2.522 0 4.607 1.314 4.607 4.152ZM218.346 22.193c1.068 0 1.787-.21 2.347-.508l.175-1.507c-.56.368-1.296.648-2.312.648-1.7 0-2.68-1.156-2.838-2.4h4.8l.893-.893a3.46 3.46 0 0 0 .053-.648c0-1.472-1.244-3.014-3.434-3.014-1.839 0-3.941 1.472-3.941 4.17 0 2.47 1.997 4.152 4.257 4.152Zm-.228-6.955c1.051 0 1.734.893 1.734 1.682 0 .07 0 .14-.017.21h-4.012c.368-1.332 1.472-1.892 2.295-1.892ZM231.724 17.936c0-2.505-1.804-4.065-3.907-4.065-1.068 0-1.874.438-2.435 1.122l-.017-.018v-.91h-1.542v11.982h1.594v-4.8c.473.49 1.262.946 2.313.946 2.19 0 3.994-1.787 3.994-4.257Zm-1.612 0c0 1.699-1.279 2.89-2.575 2.89-.858 0-1.664-.403-2.12-1.103v-3.381c.456-.684 1.262-1.104 2.12-1.104 1.296 0 2.575.98 2.575 2.698ZM236.308 22.193c1.051 0 1.91-.438 2.382-1.174.21.526.614.893 1.052 1.086l.91-.98v-.159c-.508-.245-.893-1.033-.893-1.751v-2.47c0-1.875-1.279-2.874-3.048-2.874-.964 0-1.875.21-2.593.684l.315 1.314c.579-.386 1.402-.631 2.19-.631 1.121 0 1.542.578 1.542 1.296v.508l-1.857.175c-1.349.123-2.61.999-2.61 2.54 0 1.28.98 2.436 2.61 2.436Zm-1.086-2.418c0-.578.403-1.191 1.419-1.279l1.524-.14v.7c0 1.07-.824 1.788-1.77 1.788-.718 0-1.173-.508-1.173-1.069ZM247.181 14.082c-.175-.07-.543-.123-.77-.123-1.104 0-1.998.578-2.296 1.717h-.017v-1.612h-1.594V22h1.594v-4.012c0-1.84 1.086-2.33 2.12-2.33.227 0 .437.035.578.07l.385-1.646ZM254.27 14.064h-3.013V11.63l-1.577.823v1.612h-1.349v1.367h1.35v4.292c0 1.541 1.155 2.365 2.592 2.365.315 0 .666-.035.876-.14l.14-1.332c-.193.07-.438.105-.718.105-.841 0-1.314-.315-1.314-1.226V15.43h2.733l.28-1.367ZM267.999 22v-5.256c0-1.769-1.21-2.873-3.049-2.873-1.173 0-2.137.544-2.575 1.174-.42-.736-1.349-1.174-2.347-1.174-1.314 0-1.997.526-2.33 1.227h-.018v-1.034h-1.471V22h1.594v-5.098c0-.823.403-1.664 1.787-1.664 1.436 0 1.717.84 1.717 1.664V22h1.594v-5.098c0-.823.403-1.664 1.787-1.664 1.436 0 1.716.84 1.716 1.664V22H268ZM274.632 22.193c1.069 0 1.787-.21 2.348-.508l.175-1.507c-.56.368-1.296.648-2.312.648-1.7 0-2.68-1.156-2.838-2.4h4.8l.893-.893a3.46 3.46 0 0 0 .053-.648c0-1.472-1.244-3.014-3.434-3.014-1.84 0-3.942 1.472-3.942 4.17 0 2.47 1.997 4.152 4.257 4.152Zm-.227-6.955c1.05 0 1.734.893 1.734 1.682 0 .07 0 .14-.018.21h-4.011c.368-1.332 1.471-1.892 2.295-1.892ZM287.047 22v-5.256c0-1.769-1.279-2.873-3.013-2.873-1.384 0-2.102.526-2.453 1.227h-.017v-1.034h-1.454V22h1.594v-5.098c0-.823.63-1.664 1.91-1.664 1.33 0 1.839.84 1.839 1.664V22h1.594ZM294.924 14.064h-3.013V11.63l-1.576.823v1.612h-1.35v1.367h1.35v4.292c0 1.541 1.156 2.365 2.592 2.365.316 0 .666-.035.876-.14l.14-1.332c-.192.07-.438.105-.718.105-.84 0-1.314-.315-1.314-1.226V15.43h2.733l.28-1.367ZM309.768 18.04c0-2.47-1.84-4.169-4.204-4.169-2.365 0-4.222 1.7-4.222 4.17 0 2.452 1.857 4.152 4.222 4.152s4.204-1.7 4.204-4.152Zm-1.611 0c0 1.665-1.21 2.786-2.593 2.786-1.402 0-2.61-1.12-2.61-2.785 0-1.7 1.208-2.803 2.61-2.803 1.384 0 2.593 1.104 2.593 2.803ZM317.61 9.79c-.42-.176-.963-.263-1.576-.263-2.067 0-3.346 1.191-3.346 3.434v1.103h-1.349v1.367h1.35V22h1.593v-6.57h2.26l.315-1.366h-2.575v-.963c0-1.437.613-2.19 1.857-2.19.35 0 .789.105 1.156.263l.316-1.384Z"/></g><g fill="#FFF" fill-rule="nonzero"><path d="M71.362 35.421c-.736-.417-1.913-.76-3.433-.76-3.482 0-6.791 2.722-6.791 8.018 0 5.32 3.285 8.017 6.791 8.017 1.177 0 2.06-.172 2.722-.49l.27-2.967c-.59.319-1.447.515-2.354.515-2.403 0-3.972-2.01-3.972-5.026 0-3.04 1.618-5.027 3.824-5.027.932 0 1.79.27 2.354.638l.589-2.918ZM84.028 50.5V34.858H80.57v6.3h-4.462v-6.3h-3.433V50.5h3.433v-6.35h4.462v6.35zM89.608 50.5V34.858H86.15V50.5zM99.895 50.5v-2.868h-4.731V34.858H91.73V50.5zM112.341 42.679c0-5.247-3.114-7.822-6.816-7.822h-4.438V50.5h4.438c3.702 0 6.816-2.574 6.816-7.821Zm-3.482.024c0 3.384-1.642 4.953-3.628 4.953h-.81v-9.93h.81c1.986 0 3.628 1.57 3.628 4.977ZM124.86 50.5l-3.408-7.135c1.201-.76 1.912-2.133 1.912-3.85 0-2.843-1.937-4.658-4.438-4.658h-4.903V50.5h3.408v-6.473h.76l2.918 6.473h3.75Zm-4.83-10.91c0 1.25-.736 1.887-1.618 1.887h-.981v-3.776h.98c.883 0 1.619.638 1.619 1.888ZM125.928 50.5h8.214v-2.868h-4.83v-3.556h3.58v-2.843h-3.58v-3.508h4.29v-2.867h-7.674zM147.716 50.598v-15.74h-3.261v5.786c0 .907.024 1.961.073 2.893h-.049c-.515-.883-1.348-2.084-1.937-2.918l-4.07-5.762h-2.844V50.5h3.26v-6.4c0-.931-.048-2.108-.097-3.162l.049-.025c.637 1.006 1.446 2.256 2.207 3.261l4.658 6.424h2.01ZM152.732 48.955c0-.686-1.324-1.814-1.84-1.814-.563 0-1.838 1.152-1.838 1.814 0 .49.956 1.447 1.496 1.545-.123.98-.736 2.305-1.496 3.163l1.005.171c1.25-1.176 2.673-3.481 2.673-4.879ZM170.66 34.857h-3.409l-1.888 3.923c-.27.564-.613 1.324-.833 1.962h-.05c-.22-.638-.539-1.398-.808-1.962l-1.913-3.923h-3.629l4.61 9.317V50.5h3.334v-6.4l4.585-9.243ZM183.546 42.679c0-5.027-2.942-8.116-6.718-8.116-3.727 0-6.718 3.09-6.718 8.116s2.991 8.09 6.718 8.09c3.776 0 6.718-3.064 6.718-8.09Zm-3.482.024c0 3.114-1.52 5.05-3.236 5.05-1.716 0-3.212-1.936-3.212-5.05s1.496-5.05 3.212-5.05c1.716 0 3.236 1.936 3.236 5.05ZM196.53 45.89V34.858h-3.407v10.764c0 1.373-.908 2.157-2.207 2.157-1.3 0-2.231-.784-2.231-2.157V34.857h-3.433v11.034c0 3.064 2.477 4.903 5.615 4.903 3.138 0 5.664-1.839 5.664-4.903ZM208.265 37.725v-2.867h-10.64v2.867h3.603V50.5h3.433V37.725zM220.661 50.5V34.858h-3.457v6.3h-4.462v-6.3h-3.432V50.5h3.432v-6.35h4.463v6.35zM227.212 46.503c0 2.526 1.717 4.267 4.708 4.267a7.858 7.858 0 0 0 3.629-.883l.49.613h4.02l-2.034-2.525a8.091 8.091 0 0 0 1.545-2.354l-1.864-1.937a9.67 9.67 0 0 1-1.422 2.157l-2.476-3.064c1.3-.981 2.476-2.231 2.476-4.267 0-2.451-1.912-3.971-4.217-3.971-2.28 0-4.07 1.495-4.07 3.775 0 1.275.466 2.55 1.446 3.752l.123.171c-1.25 1.006-2.354 2.256-2.354 4.266Zm4.61-6.203c-.466-.637-.785-1.226-.785-1.937 0-.686.441-1.177 1.103-1.177.662 0 1.08.589 1.08 1.202 0 .834-.516 1.471-1.276 2.084l-.122-.172Zm-1.496 6.056c0-.735.417-1.3 1.054-1.814l2.452 3.138a4.043 4.043 0 0 1-1.692.368c-1.078 0-1.814-.637-1.814-1.692ZM253.966 37.725v-2.867h-7.748V50.5h3.385v-6.4h3.603v-2.893h-3.603v-3.482zM253.343 50.5h3.212l1.03-3.58h3.629l1.005 3.58h3.433l-4.855-15.716h-2.623l-4.83 15.716Zm5.689-8.704c.122-.613.27-1.422.343-2.158h.049c.098.736.22 1.545.368 2.158l.686 2.427h-2.133l.687-2.427ZM281.995 50.5l-1.152-15.643h-3.114l-2.476 6.743a54.241 54.241 0 0 0-1.079 3.383h-.049c-.27-1.03-.736-2.402-1.103-3.383l-2.526-6.743h-3.236L266.107 50.5h3.212l.393-6.203a31.25 31.25 0 0 0 .073-3.114h.05c.293 1.054.637 2.231.98 3.138l2.256 6.203h1.863l2.207-6.203c.343-.931.686-2.084.98-3.163h.05a32.15 32.15 0 0 0 .073 3.139l.417 6.203h3.334ZM287.159 50.5V34.858h-3.457V50.5zM297.447 50.5v-2.868h-4.733V34.858h-3.433V50.5zM302.12 50.5V34.858h-3.457V50.5zM304.243 50.5h8.214v-2.868h-4.83v-3.556h3.579v-2.843h-3.58v-3.508h4.29v-2.867h-7.673zM322.474 46.234c0-4.953-5.345-5.076-5.345-7.454 0-.784.589-1.226 1.545-1.226.834 0 1.839.344 2.354.613l.588-2.77c-.564-.32-1.839-.736-3.285-.736-2.82 0-4.536 1.716-4.536 4.217 0 5.1 5.271 5.027 5.271 7.478 0 1.006-.784 1.422-1.863 1.422-1.202 0-2.575-.514-3.555-1.225l.294 3.211c.784.49 2.182.932 3.629.932 3.187 0 4.903-1.667 4.903-4.462Z"/></g></g></svg>